<svg width="80" height="80" viewBox="0 0 80 80" xmlns="http://www.w3.org/2000/svg">
  <circle cx="40" cy="40" r="30" fill="none" stroke="rgba(140,180,58,0.28)" stroke-width="2" stroke-dasharray="8 10"/>
  <g stroke="#8cb43a" stroke-width="3" stroke-linecap="round" stroke-linejoin="round">
    <path d="M40 18v40"/>
    <path d="M40 24 47 18"/>
    <path d="M40 30 47 24"/>
    <path d="M40 36 47 30"/>
    <path d="M40 42 47 36"/>
    <path d="M40 48 47 42"/>
    <path d="M40 24 33 18"/>
    <path d="M40 30 33 24"/>
    <path d="M40 36 33 30"/>
    <path d="M40 42 33 36"/>
    <path d="M40 48 33 42"/>
  </g>
  <path d="M40 58c4 0 7 2.5 7 5.5H33c0-3 3-5.5 7-5.5Z" fill="#8cb43a" opacity="0.25"/>
</svg>

