<svg xmlns="http://www.w3.org/2000/svg" width="480" height="480" viewBox="0 0 480 480" role="img" aria-labelledby="title desc">
  <title id="title">QR traceability illustration</title>
  <desc id="desc">Stylized QR code pattern for product traceability</desc>
  <rect width="480" height="480" rx="16" fill="#ffffff"/>
  <rect x="32" y="32" width="120" height="120" fill="#1a1a1a"/>
  <rect x="56" y="56" width="72" height="72" fill="#ffffff"/>
  <rect x="72" y="72" width="40" height="40" fill="#1a1a1a"/>
  <rect x="328" y="32" width="120" height="120" fill="#1a1a1a"/>
  <rect x="352" y="56" width="72" height="72" fill="#ffffff"/>
  <rect x="368" y="72" width="40" height="40" fill="#1a1a1a"/>
  <rect x="32" y="328" width="120" height="120" fill="#1a1a1a"/>
  <rect x="56" y="352" width="72" height="72" fill="#ffffff"/>
  <rect x="72" y="368" width="40" height="40" fill="#1a1a1a"/>
  <g fill="#1a1a1a">
    <rect x="176" y="32" width="24" height="24"/><rect x="224" y="32" width="24" height="24"/><rect x="272" y="32" width="24" height="24"/>
    <rect x="176" y="80" width="24" height="24"/><rect x="248" y="80" width="24" height="24"/>
    <rect x="176" y="176" width="24" height="24"/><rect x="248" y="176" width="24" height="24"/><rect x="320" y="176" width="24" height="24"/>
    <rect x="176" y="224" width="48" height="24"/><rect x="272" y="224" width="24" height="24"/><rect x="368" y="224" width="24" height="24"/>
    <rect x="176" y="272" width="24" height="24"/><rect x="320" y="272" width="48" height="24"/>
    <rect x="176" y="320" width="24" height="24"/><rect x="248" y="320" width="24" height="24"/><rect x="368" y="320" width="24" height="24"/>
    <rect x="176" y="368" width="72" height="24"/><rect x="320" y="368" width="24" height="24"/>
    <rect x="224" y="176" width="24" height="72"/><rect x="368" y="176" width="24" height="48"/>
    <rect x="272" y="272" width="72" height="72"/>
  </g>
  <text x="240" y="460" text-anchor="middle" fill="#8cb43a" font-family="system-ui,sans-serif" font-size="20" font-weight="600">QR traceability</text>
</svg>
